<?xml version="1.0" standalone="no"?>
 <!DOCTYPE svg PUBLIC "-//W3C//DTD SVG 1.1//EN" 
 "http://www.w3.org/Graphics/SVG/1.1/DTD/svg11.dtd"> 
<svg
  xmlns:svg="http://www.w3.org/2000/svg"
  xmlns="http://www.w3.org/2000/svg"
  xmlns:xlink="http://www.w3.org/1999/xlink"
  version="1.1"
  width="297.002200mm" height="210.007200mm" viewBox="0.000000 0.000000 297.002200 210.007200">
<title>SVG Image created as DC33-Edge_Cuts.svg date 2025/06/29 21:16:37 </title>
  <desc>Image generated by PCBNEW </desc>
<g style="fill:#000000; fill-opacity:1.000000;stroke:#000000; stroke-opacity:1.000000;
stroke-linecap:round; stroke-linejoin:round;"
 transform="translate(0 0) scale(1 1)">
</g>
<g style="fill:none; 
stroke:#000000; stroke-width:0.200000; stroke-opacity:1; 
stroke-linecap:round; stroke-linejoin:round;">
<path d="M203.939264 156.388791
L246.084912 106.161564
" />
<path d="M73.911362 92.993358 A0.500042 0.500042 0.0 0 0 73.418950 93.406597" />
<path d="M175.663292 104.014579 A0.500008 0.500008 0.0 0 0 176.163261 104.514608" />
<path d="M175.166283 52.220851
L122.816179 52.222782
" />
<path d="M71.042970 104.507698 A0.499998 0.499998 0.0 0 0 71.535414 104.094455" />
<path d="M175.666349 52.720880 A0.500049 0.500049 0.0 0 0 175.166283 52.220851" />
<path d="M95.180101 86.212279 A0.500021 0.500021 0.0 0 0 94.680079 86.712247" />
<path d="M122.816179 52.222789 A0.500011 0.500011 0.0 0 0 122.316189 52.722726" />
<path d="M51.962047 104.919670
L47.786395 128.600971
" />
<path d="M94.179307 92.993375
L73.911362 92.993375
" />
<path d="M246.084834 106.161499 A0.999923 0.999923 0.0 0 0 245.318928 104.518777" />
<path d="M122.316189 52.722726
L122.312512 85.713522
" />
<path d="M73.418950 93.406597
L71.535414 104.094455
" />
<path d="M47.786402 128.600972 A0.499995 0.499995 0.0 0 0 48.191975 129.180199" />
<path d="M121.812490 86.213466
L95.180101 86.212296
" />
<path d="M94.179307 92.993307 A0.499907 0.499907 0.0 0 0 94.679307 92.493442" />
<path d="M48.191975 129.180199
L203.469418 156.559801
" />
<path d="M245.318928 104.518777
L176.163261 104.514608
" />
<path d="M203.469411 156.559841 A0.500030 0.500030 0.0 0 0 203.939264 156.388791" />
<path d="M52.454483 104.506549 A0.499951 0.499951 0.0 0 0 51.962047 104.919670" />
<path d="M121.812490 86.213512 A0.500012 0.500012 0.0 0 0 122.312512 85.713522" />
<path d="M175.663291 104.014579
L175.666301 52.720880
" />
<path d="M71.042970 104.507677
L52.454483 104.506494
" />
<path d="M94.680079 86.712247
L94.679307 92.493442
" />
</g> 
</svg>
