<?xml version="1.0" encoding="utf-8"?>
<!-- Generator: Adobe Illustrator 29.6.0, SVG Export Plug-In . SVG Version: 9.03 Build 0)  -->
<svg version="1.0" id="Layer_6" xmlns="http://www.w3.org/2000/svg" xmlns:xlink="http://www.w3.org/1999/xlink" x="0px" y="0px"
	 width="841.9px" height="595.3px" viewBox="0 0 841.9 595.3" style="enable-background:new 0 0 841.9 595.3;" xml:space="preserve"
	>
<style type="text/css">
	.st0{fill:#FFFFFF;}
</style>
<polygon points="698.4,297.7 496.5,297.7 496.5,297.6 148.7,297.7 143.7,325.7 136.9,364.8 577,442.4 "/>
<path class="st0" d="M203.8,297.7"/>
<path class="st0" d="M527.8,232.3"/>
<path class="st0" d="M203.8,297.7"/>
<path class="st0" d="M330.9,297.7L330.9,297.7l0.4,0l37.4,37.4l-57.8,60.4l-54.5-9.6l48.1-50.8l-37.4-37.4h64.2 M424.1,335.1
	l-66.7,68.6l54.5,9.6l76.3-78.2l-37.4-37.4h-0.4l0,0l-61.9,0L424.1,335.1z M543.6,335.1l-79.3,87.5l54.5,9.6l88.9-97.1l-37.4-37.4
	H570l0,0l-63.4,0L543.6,335.1z M203.8,297.7l-55.1,0l-1.3,7.4l30,30L146,366.4l54.5,9.6l41-41L203.8,297.7"/>
</svg>
