<?xml version="1.0" encoding="utf-8"?>
<!-- Generator: Adobe Illustrator 29.6.0, SVG Export Plug-In . SVG Version: 9.03 Build 0)  -->
<svg version="1.0" xmlns="http://www.w3.org/2000/svg" xmlns:xlink="http://www.w3.org/1999/xlink" x="0px" y="0px" width="841.9px"
	 height="595.3px" viewBox="0 0 841.9 595.3" style="enable-background:new 0 0 841.9 595.3;" xml:space="preserve">
<style type="text/css">
	.st0{display:none;}
	.st1{display:inline;fill:none;stroke:#000000;stroke-miterlimit:10;}
	.st2{display:inline;}
	.st3{display:inline;fill:#FFFF00;}
	.st4{display:inline;fill:#00FF00;}
	.st5{fill:none;}
	.st6{fill:#FFFFFF;}
</style>
<g id="OUTLINE" class="st0">
	<path class="st1" d="M497.9,296.3l0-148.2v0l-151.2,0l0,96.4l-78.3,0l0,19.2l0,0h-60.1l-5.8,32.6l-55.1,0l-12.3,69.7l442.4,78
		l123.9-147.7H497.9"/>
</g>
<g id="ORIGINAL" xmlns:svg="http://www.w3.org/2000/svg" xmlns:xlink="http://www.w3.org/1999/xlink" class="st0">
	<g transform="translate(0 0) scale(1 1)" class="st2">
	</g>
	<polygon class="st3" points="136.9,364.8 148.7,297.7 203.8,297.7 209.5,265 269.7,265 269.8,263.7 269.8,245.8 348.1,245.8 
		348.1,149.5 496.5,149.4 496.5,297.7 698.4,297.7 577,442.4 	"/>
</g>
<g id="DAZZLE_CANVAS" class="st0">
	<polygon class="st4" points="203.8,297.6 203.8,297.7 148.7,297.7 136.9,364.8 577,442.4 698.4,297.7 496.5,297.7 496.5,297.6 	"/>
</g>
<g id="DAZZLE_BLACK_IMPORT">
	<polygon points="203.8,297.6 203.8,297.7 148.7,297.7 136.9,364.8 577,442.4 698.4,297.7 496.5,297.7 496.5,297.6 	"/>
</g>
<g id="DAZZLE_CLIPPED" class="st0">
	<g class="st2">
		<polygon class="st5" points="346,362 312.3,376.6 309.9,377.7 332.3,380 		"/>
		<polygon class="st5" points="256.6,302.6 256.6,302.8 256.6,302 		"/>
		<polygon class="st5" points="309.9,377.7 285.3,377.3 301.4,391.4 365.6,404.9 		"/>
		<polygon class="st5" points="185.7,316.3 208.3,321.2 168.9,300.5 		"/>
		<polygon class="st5" points="428,298.3 427.9,297.9 427.9,298.2 		"/>
		<polygon class="st6" points="256.6,302 256.6,302.8 274,322.9 300,327.3 299.9,327.2 292.9,302.5 282.5,301.9 279.5,297.6 
			256.9,297.6 		"/>
		<polygon class="st6" points="463.4,394 445.1,376.2 439.6,392.6 460.1,402.3 		"/>
		<polygon class="st6" points="157.2,347 157.6,346.8 160.7,345.5 167.7,340.8 161.5,335 158.3,333.6 155.3,332.4 153.1,335.3 
			148,334.1 144,338.7 146.2,339.6 147.1,339.3 151,348.7 152.8,353.3 155.8,351.5 		"/>
		<polygon class="st6" points="247.2,367.6 223.7,364.2 225.3,359.1 211.2,364.7 206.7,376.7 206.2,377 253.1,385.3 254.1,384.7 		
			"/>
		<polygon class="st6" points="142.8,360.6 143.6,360.8 144.9,361.2 163,368 164.4,369.6 168.4,362.7 175.9,369.1 181.8,371.7 
			186.1,373.5 194.6,375 194.9,372.1 183.4,361.3 186.5,341.5 185.1,341.3 174.2,353.4 174.1,353.9 174.3,353.8 173,360.2 
			170.5,359.1 163,355.8 162.5,357.4 162,359.6 162.1,359 152.6,356.1 158.5,353 155.8,351.5 152.8,353.3 149.7,355.2 143.9,358.9 
			144.8,351.4 143.1,348.7 140.7,360.7 142.2,360.8 144.5,366.1 148.7,366.9 		"/>
		<polygon class="st6" points="227,297.6 214.5,297.6 224.1,307.1 238.7,321.5 239.6,320.5 		"/>
		<polygon class="st6" points="228.2,350.1 234.1,347.9 221.2,334.8 211.9,340.2 215.9,345.7 		"/>
		<polygon class="st6" points="312.9,305.5 322.7,311.8 327.8,297.6 300.7,297.6 		"/>
		<polygon class="st6" points="590.1,329 593.8,297.7 567.3,297.7 574.7,302.4 572.3,324.9 576.2,311.1 		"/>
		<polygon class="st6" points="472.8,411.2 461.7,414.1 428,390.7 429.1,387.7 424.4,365.3 398.1,400.5 391.3,409.7 497,428.3 		"/>
		<polygon class="st6" points="362.5,313.1 366.5,307.9 373.5,316.1 361.4,323.4 361.4,323.8 376.7,323.1 390.3,315.5 402.4,325.3 
			400.1,313.3 419.4,305 420.9,305.6 417.8,298.7 414.4,297.6 407.2,297.6 398.9,302.7 398.7,302.8 394.9,297.6 368.9,297.6 
			369.1,303 367.8,301.4 358,297.6 356,297.6 		"/>
		<polygon class="st6" points="189,347.8 195.5,366.6 215.6,346.1 199,347.1 		"/>
		<polygon class="st6" points="386.2,332 359.6,341.7 413.3,340.4 		"/>
		<polygon class="st6" points="637.5,370.3 695.7,301 694.5,297.7 632.3,297.7 619.3,334.5 646.4,324.2 		"/>
		<polygon class="st6" points="301.4,391.4 304.9,394.4 365.7,405.1 365.6,404.9 		"/>
		<polygon class="st6" points="309.9,377.7 312.3,376.6 346,362 332.3,380 309.9,377.7 365.6,404.9 365.5,389.5 377.7,383.5 
			405.4,369.9 358.7,343.8 357.3,345.4 345.9,359.2 303.4,330.3 303.1,330.4 310.4,367 276.6,373.3 275.7,373.7 274.9,374.2 
			262.5,380.5 254.1,384.7 253.1,385.3 270.7,388.4 269.3,387 280.1,382.3 282.8,390.5 297,393 301.4,391.4 285.3,377.3 		"/>
		<polygon class="st6" points="176.1,337.1 174.9,336.5 166.2,345.5 166.5,347.1 174.5,344.7 172.8,352.9 174.2,353.4 185.1,341.3 
					"/>
		<polygon class="st6" points="161,345.5 162,349.1 166.6,347.8 166.5,347.1 166.2,345.5 		"/>
		<polygon class="st6" points="603.7,297.7 606.7,315.1 613.2,351.9 619.3,334.5 632.3,297.7 		"/>
		<polygon class="st6" points="256.6,302 256.9,297.6 227,297.6 239.6,320.5 241,319.7 250.8,314.5 256.6,302.8 256.6,302.6 		"/>
		<polygon class="st6" points="360.9,324.6 345.3,306.3 322,313.8 330.2,316.1 335.8,330.1 360.4,329.9 360.8,324.9 		"/>
		<polygon class="st6" points="140.6,360.7 138.7,360.9 137.4,361.4 136.9,364.8 138.9,365.1 141.4,360.8 		"/>
		<polygon class="st6" points="577,442.4 628.5,381.1 609.3,364.6 586.2,360.4 571,363.9 539.4,371.4 512.8,416.8 558.7,404.4 
			548.5,437.4 		"/>
		<polygon class="st6" points="420.8,325.7 418.3,344.5 424.7,352.3 428.3,331.2 431.9,310.1 423.8,308.5 423.2,308.5 423,308.5 		
			"/>
		<polygon class="st6" points="462.8,317.1 449.9,345.8 456,343.8 462.2,364.7 466.4,386.4 462.7,395.9 464.7,393 471,384.2 
			470.8,384.1 479,381 470.3,382.4 470.2,382.3 470.5,382.1 490.8,353.1 456.9,343.7 456.9,343.4 484.7,331.8 484.4,325.9 
			483.5,307.1 468.3,304.7 		"/>
		<polygon class="st6" points="435,297.9 435.1,297.6 427.9,297.6 427.9,297.9 428,298.3 429.6,299.3 428.8,299 429.2,299.4 
			428.5,304.2 425.9,305.6 422.8,307.1 423,308.5 423.2,308.5 428.8,306 434.4,306.9 434.7,304.7 434.5,304.5 440.4,299.4 		"/>
		<polygon class="st6" points="440.3,297.6 443,298.9 451.9,297.6 		"/>
		<polygon class="st6" points="428,298.3 427.9,298.2 427.9,297.9 427.9,297.6 425.1,297.6 425.2,297.7 428.8,299 429.6,299.3 		"/>
		<polygon class="st6" points="559.1,297.7 496.5,297.7 496.5,297.6 464.2,297.6 483.5,307.1 484,303.2 485.9,300.5 531,327.4 
			586.2,360.4 572.3,324.9 		"/>
		<polygon class="st6" points="498.5,342 490.8,353.1 527.6,363.4 		"/>
		<polyline class="st6" points="165.2,297.7 148.7,297.7 148,301.5 154.7,303.7 147.2,307.9 147.8,315.1 148.5,323.8 151.8,328.1 
			155.2,330.9 160.8,323.4 163.2,325.7 169.7,311.4 170.3,307.5 179.9,315.1 199.4,330.4 200.5,330.1 203.7,329 208.3,321.2 
			185.7,316.3 168.9,300.5 208.3,321.2 208.4,320.9 192.8,298.5 208.8,298.5 208.7,297.6 203.8,297.6 203.8,297.7 165.2,297.7 		"/>
		<polygon class="st6" points="239.6,320.5 238.7,321.5 237.7,322.7 238,346.5 240.8,348 258.9,357.8 259.6,348 273.4,342.2 
			302.5,329.9 300.1,327.4 272.3,326.4 261,325.9 257.4,321.9 250.8,314.5 241,319.7 		"/>
		<polygon class="st6" points="174.1,353.9 169.3,354.9 173,360.2 174.3,353.8 		"/>
	</g>
</g>
<g id="DAZZLE_BLACK_IMPORT_copy" class="st0">
</g>
<g id="Layer_8" class="st0">
	<polygon class="st2" points="698.4,297.7 496.5,297.7 496.5,297.6 148.7,297.7 143.7,325.7 136.9,364.8 577,442.4 	"/>
</g>
<g id="Layer_6">
	<path class="st6" d="M203.8,297.7"/>
	<polyline class="st6" points="267.1,297.6 304.5,336.8 256.4,385.9 310.9,395.5 368.7,336.8 331.3,297.6 330.9,297.6 330.9,297.7 	
		"/>
	<polyline class="st6" points="424.1,336.8 357.4,403.7 412,413.3 488.2,336.8 450.8,297.6 450.5,297.6 450.5,297.7 388.5,297.7 	
		"/>
	<polyline class="st6" points="543.6,336.8 464.4,422.5 518.9,432.2 607.8,336.8 570.4,297.6 570,297.6 570,297.7 506.6,297.7 	"/>
	<path class="st6" d="M527.8,232.3"/>
	<path class="st6" d="M203.8,297.7l37.8,39.2l-41,39.2l-54.5-9.6l31.3-29.6l-30-31.8l1.3-7.4L203.8,297.7"/>
</g>
</svg>
